<svg xmlns="http://www.w3.org/2000/svg" width="222.884" height="174.686" viewBox="0 0 222.884 174.686">
    <g>
        <path fill="#9fdef7" d="M81.125 112.7h16.652a48.921 48.921 0 0 1 29.613-23.666A17.157 17.157 0 0 0 106.4 79.2c.009-.26.02-.52.02-.783a23.054 23.054 0 0 0-45.536-5.1 13.838 13.838 0 0 0-15.76 5.254 17.343 17.343 0 1 0-4.357 34.129h27.724" transform="translate(0 -55.36) translate(-13.228)"/>
        <path fill="#beeafc" d="M162.609 142.868A48.818 48.818 0 0 0 79.33 165.4a29.288 29.288 0 0 0-33.371 11.125 36.727 36.727 0 1 0-9.236 72.275h40.49a22.743 22.743 0 0 1 29.532-21.538c-.01-.344-.026-.689-.026-1.037a30.571 30.571 0 0 1 60.384-6.764 18.338 18.338 0 0 1 20.9 6.967 23.022 23.022 0 0 1 25.5 10.426 36.31 36.31 0 0 0-37.782-59c.018-.55.042-1.1.042-1.656a48.6 48.6 0 0 0-5.592-22.708" transform="translate(0 -55.36) translate(0 -40.668)"/>
        <path fill="#aee4ff" d="M38.936 237.651q-1.1-.067-2.213-.068a36.724 36.724 0 0 0 0 73.447h40.49a22.629 22.629 0 0 1 2.814-10.806 113.967 113.967 0 0 1-41.091-62.573z" transform="translate(0 -55.36) translate(0 -102.897)"/>
        <path fill="#83d4ed" d="M48.757 129.683A113.832 113.832 0 0 1 53.981 95.5a13.838 13.838 0 0 0-8.851 5.734 17.343 17.343 0 1 0-4.361 34.129H48.9q-.14-2.824-.143-5.68z" transform="translate(0 -55.36) translate(-13.229 -22.665)"/>
        <path fill="#e4f2f9" d="M293.936 312.024a23.02 23.02 0 0 0-5.783.735 18.338 18.338 0 0 0-20.9-6.967 30.571 30.571 0 0 0-60.384 6.764c0 .348.015.693.026 1.037a22.732 22.732 0 1 0-6.805 44.422h93.843a23 23 0 1 0 0-45.991z" transform="translate(0 -55.36) translate(-100.153 -127.969)"/>
        <path fill="#d7edf9" d="M224.332 307.63a56.651 56.651 0 0 1 4.869-23.046 30.579 30.579 0 0 0-22.33 29.44c0 .348.015.693.026 1.037a22.732 22.732 0 1 0-6.805 44.422h57.757a56.856 56.856 0 0 1-33.517-51.853z" transform="translate(0 -55.36) translate(-100.152 -129.438)"/>
    </g>
</svg>
