<?xml version="1.0" encoding="utf-8"?>
<!-- Generator: Adobe Illustrator 20.1.0, SVG Export Plug-In . SVG Version: 6.00 Build 0)  -->
<svg version="1.1" id="Layer_1" xmlns="http://www.w3.org/2000/svg" xmlns:xlink="http://www.w3.org/1999/xlink" x="0px" y="0px"
	 viewBox="0 0 283.5 205" style="enable-background:new 0 0 283.5 205;" xml:space="preserve">
<style type="text/css">
	.st0{fill:#040606;}
	.st1{fill:#5D3E8B;}
	.st2{fill:#8DC446;}
</style>
<g>
	<path class="st0" d="M120.2,133c0-1.7,0-2.7-2-2.8c-0.8,0-1.4-0.1-1.4-0.7c0-0.6,0.5-0.6,0.8-0.6c0.8,0,4.2,0.2,4.6,0.2
		c1.3,0,3.4-0.2,4.7-0.2c0.3,0,0.8,0,0.8,0.6s-0.6,0.6-1.4,0.6c-2,0.2-2,1.2-2,2.7v13c0,4.9,0,7.8-3.8,11.6
		c-1.5,1.5-3.8,3.2-5.8,3.2c-1.9,0-2.7-1.3-2.7-2.4c0-1.1,0.9-2.2,2.1-2.2c1.1,0,1.5,0.7,2.1,1.6c0.4,0.6,0.8,0.8,1.1,0.8
		c2.7,0,2.8-7.8,2.8-10.4L120.2,133z"/>
	<path class="st0" d="M134.3,144.5c-1.2,0-1.2,0-1.5,1l-1.3,4.2c0,0.1-0.4,1.2-0.4,1.7c0,1,1,1.1,1.9,1.1c1,0,1.5,0.2,1.5,0.6
		c0,0.6-0.5,0.6-1.4,0.6c-0.4,0-2.7-0.2-3.9-0.2c-0.4,0-2.8,0.2-3.3,0.2c-0.2,0-0.8,0-0.8-0.6c0-0.5,0.6-0.6,1.2-0.7
		c1.3-0.1,1.7-0.2,2.4-1.5c1.3-2.5,4.7-11.7,7.4-18.5c1.5-3.8,1.5-3.9,1.9-3.9s0.6,0.3,1.1,1.9c0.4,1.1,0.8,2.2,1.1,3l6.2,15
		c1.3,3,1.7,3.9,3.3,4.2c0.7,0.1,1.1,0.2,1.1,0.7s-0.7,0.5-0.9,0.5c-0.7,0-4-0.2-4.6-0.2c-2.4,0-4.5,0.2-4.6,0.2
		c-0.4,0-0.9,0-0.9-0.6c0-0.5,0.6-0.6,1.4-0.7c1-0.1,1.4-0.3,1.4-0.9c0-0.4-0.2-1-0.3-1.1l-1.7-4.7c-0.4-1.2-0.6-1.2-1.6-1.2
		L134.3,144.5z M138.5,143.1c0.9,0,0.9-0.2,0.9-0.3c0-0.2-0.1-0.5-0.2-0.7l-2.8-6.8L134,142c0,0.1-0.2,0.5-0.2,0.8
		c0,0.4,0.2,0.4,0.9,0.4L138.5,143.1L138.5,143.1z"/>
	<path class="st0" d="M171.2,149.6c2.3,2.4,2.9,2.9,3.8,2.9c0.7,0,1.3,0,1.3,0.6s-0.4,0.6-1.5,0.6c-1,0-1.2-0.2-4.2-0.2
		c-4,0-5,0.2-5.7,0.2c-0.5,0-0.9,0-0.9-0.6c0-0.4,0.4-0.6,0.6-0.6l1.2-0.1c0.4,0,1-0.3,1-0.7c0-0.3-0.2-0.6-0.8-1.3l-7.2-7.8
		c-0.3-0.3-0.8-0.9-1.1-0.9c-0.5,0-0.5,0.5-0.5,1.1v6.8c0,1.7,0,2.7,2,2.8c0.8,0,1.4,0.1,1.4,0.7c0,0.6-0.5,0.6-0.8,0.6
		c-0.7,0-4-0.2-4.7-0.2s-4.5,0.2-4.6,0.2c-0.3,0-0.8,0-0.8-0.6s0.6-0.6,1.4-0.6c2-0.2,2-1.2,2-2.8V133c0-1.6,0-2.7-2-2.8
		c-0.8-0.1-1.4-0.1-1.4-0.7c0-0.6,0.2-0.6,1.5-0.6c2.5,0.2,3.4,0.2,4.1,0.2c0.7,0,3.9-0.2,4.6-0.2c0.3,0,0.8,0,0.8,0.6
		s-0.6,0.6-1.4,0.7c-2,0.1-2,1.1-2,2.8v6.8c0,0.2,0.1,0.4,0.2,0.4c0.6,0,9.6-8.1,9.6-9.3c0-0.7-0.7-0.7-1.6-0.7
		c-1.1,0-1.5-0.2-1.5-0.6c0-0.6,0.6-0.6,1-0.6c0.6,0,3.3,0.2,4,0.2s4-0.2,4.8-0.2c0.5,0,0.8,0.3,0.8,0.6c0,0.6-0.6,0.6-1.7,0.6
		c-0.9,0-1.9,0.1-6.2,3.9l-4.6,4.1c-0.7,0.6-0.8,0.6-0.8,0.8s0.1,0.3,0.5,0.8L171.2,149.6z"/>
	<path class="st0" d="M179.3,144.5c-1.2,0-1.2,0-1.5,1l-1.3,4.2c0,0.1-0.4,1.2-0.4,1.7c0,1,1,1.1,1.9,1.1c1,0,1.5,0.2,1.5,0.6
		c0,0.6-0.5,0.6-1.4,0.6c-0.4,0-2.7-0.2-3.9-0.2c-0.4,0-2.8,0.2-3.3,0.2c-0.2,0-0.8,0-0.8-0.6c0-0.5,0.6-0.6,1.2-0.7
		c1.3-0.1,1.7-0.2,2.4-1.5c1.3-2.5,4.7-11.7,7.4-18.5c1.5-3.8,1.5-3.9,1.9-3.9s0.6,0.3,1.1,1.9c0.4,1.1,0.8,2.2,1.1,3l6.2,15
		c1.3,3,1.7,3.9,3.3,4.2c0.7,0.1,1.1,0.2,1.1,0.7s-0.7,0.5-0.9,0.5c-0.7,0-4-0.2-4.6-0.2c-2.4,0-4.5,0.2-4.6,0.2
		c-0.4,0-0.9,0-0.9-0.6c0-0.5,0.6-0.6,1.4-0.7c1-0.1,1.4-0.3,1.4-0.9c0-0.4-0.2-1-0.3-1.1l-1.7-4.7c-0.4-1.2-0.6-1.2-1.6-1.2h-4.7
		V144.5z M183.5,143.1c0.9,0,0.9-0.2,0.9-0.3c0-0.2-0.1-0.5-0.2-0.8l-2.8-6.8l-2.5,6.7c0,0.1-0.2,0.5-0.2,0.8c0,0.4,0.2,0.4,0.9,0.4
		L183.5,143.1L183.5,143.1z"/>
	<path class="st0" d="M195.9,132.9c0-1.6,0-2.7-1.9-2.8c-0.9,0-1.4-0.1-1.4-0.6c0-0.6,0.2-0.6,1.5-0.6c0.4,0,2.3,0.2,2.8,0.2
		c1.1,0,6.3-0.2,7.5-0.2c7,0,7.6,4.8,7.6,6.2c0,4.6-4.1,5.6-5.4,5.9c0.5,0.3,1,0.6,1.9,2.2l3.8,6.8c0.8,1.4,1.3,2.4,2.5,2.5
		c1.3,0.2,1.6,0.2,1.6,0.7c0,0.4-0.4,0.5-0.7,0.5c-0.5,0-3.1-0.2-3.7-0.2c-0.3,0-1.8,0.2-2.1,0.2c-0.7,0-0.9-0.4-1.3-1.2l-4.8-9
		c-0.9-1.7-1.1-1.9-2.8-1.9c-0.7,0-0.8,0.2-0.8,0.9v7.1c0,1.7,0,2.7,2,2.8c0.9,0,1.4,0.1,1.4,0.7c0,0.6-0.5,0.5-0.8,0.5
		c-0.8,0-4.6-0.2-4.7-0.2c-0.7,0-3.9,0.2-4.6,0.2c-0.3,0-0.8,0-0.8-0.6s0.6-0.6,1.4-0.6c1.9-0.2,1.9-1.2,1.9-2.8L195.9,132.9z
		 M200.2,139.1c0,1.4,0,1.5,2,1.5c1.4,0,5.3,0,5.3-4.9c0-1.4-0.6-5.7-5.5-5.7c-1.8,0-1.9,1-1.9,2.5L200.2,139.1z"/>
	<path class="st0" d="M227.5,149.6c0,1.6,0,2.7,2,2.8c0.8,0,1.4,0.1,1.4,0.7c0,0.6-0.5,0.6-0.8,0.6c-1.3,0-3.4-0.2-4.7-0.2
		c-0.7,0-3.9,0.2-4.6,0.2c-0.3,0-0.8,0-0.8-0.6s0.6-0.6,1.4-0.7c2-0.1,2-1.2,2-2.7v-18.4c0-1-0.3-1-1.1-1c-2.4,0-5,0-7,3.8
		c-0.4,0.6-0.6,0.8-0.9,0.8c-0.3,0-0.5-0.3-0.5-0.5s0.1-0.4,0.1-0.6l1.6-5.6c0.1-0.5,0.2-0.7,0.6-0.7c0.3,0,0.4,0.2,0.5,0.6
		c0.2,1.1,0.9,1.1,1.8,1.1H231c4.1,0,4.3-0.5,4.5-1.2c0.1-0.3,0.2-0.6,0.6-0.6c0.6,0,0.6,0.6,0.6,1.6l-0.3,4.8
		c0,0.8-0.1,1.3-0.6,1.3c-0.2,0-0.5,0-0.6-0.9c-0.7-3.8-2.6-3.8-5.2-3.8c-2.3,0-2.5,0-2.5,1.3V149.6z"/>
	<path class="st0" d="M238.3,144.5c-1.2,0-1.2,0-1.5,1l-1.3,4.2c0,0.1-0.4,1.2-0.4,1.7c0,1,1,1.1,1.9,1.1c1,0,1.5,0.2,1.5,0.6
		c0,0.6-0.5,0.6-1.4,0.6c-0.4,0-2.7-0.2-3.9-0.2c-0.4,0-2.8,0.2-3.3,0.2c-0.2,0-0.7,0-0.7-0.6c0-0.5,0.6-0.6,1.2-0.7
		c1.3-0.1,1.7-0.2,2.4-1.5c1.3-2.5,4.7-11.7,7.3-18.5c1.5-3.8,1.5-3.9,1.9-3.9s0.6,0.3,1.1,1.9c0.4,1.1,0.8,2.2,1.1,3l6.2,15
		c1.3,3,1.7,3.9,3.3,4.2c0.7,0.1,1.1,0.2,1.1,0.7s-0.7,0.5-0.9,0.5c-0.7,0-4-0.2-4.6-0.2c-2.4,0-4.5,0.2-4.6,0.2
		c-0.4,0-0.9,0-0.9-0.6c0-0.5,0.6-0.6,1.4-0.7c1-0.1,1.4-0.3,1.4-0.9c0-0.4-0.2-1-0.3-1.1l-1.7-4.7c-0.4-1.2-0.6-1.2-1.6-1.2h-4.7
		V144.5z M242.5,143c0.9,0,0.9-0.2,0.9-0.3c0-0.2-0.1-0.5-0.2-0.8l-2.8-6.8l-2.5,6.7c0,0.1-0.2,0.5-0.2,0.8c0,0.4,0.2,0.4,0.9,0.4
		L242.5,143L242.5,143z"/>
	<path class="st0" d="M119.6,162.1c0-1.8,0-3-2.2-3.1c-0.9-0.1-1.5-0.1-1.5-0.7c0-0.6,0.2-0.6,1.6-0.6c0.7,0,3.8,0.2,4.5,0.2
		c1,0,6.1-0.2,7.2-0.2c7.2,0,9.1,4.6,9.1,7.7c0,5.3-4.7,7.7-8.3,7.7c-1.1,0-2-0.2-3.8-0.8c-0.3-0.1-1.3-0.4-1.5-0.4
		c-0.4,0-0.4,0.2-0.4,0.8v7.9c0,1.8,0,3,2.4,3.1c1,0,1.6,0.1,1.6,0.7c0,0.6-0.6,0.6-0.9,0.6c-1.5,0-3.8-0.2-5.3-0.2
		c-0.7,0-4.4,0.2-5.2,0.2c-0.3,0-0.9,0-0.9-0.7c0-0.6,0.6-0.7,1.5-0.7c2.2-0.2,2.2-1.3,2.2-3.1L119.6,162.1z M124.3,169.6
		c0,0.7,0,0.9,0.5,1.1c0.7,0.4,2,0.5,2.9,0.5c2.4,0,5.7-1.8,5.7-6.1c0-3.8-2.9-6.4-6.4-6.4c-2.5,0-2.7,1.3-2.7,3.4L124.3,169.6z"/>
	<path class="st0" d="M142.6,162c0-1.8,0-3-2.1-3.1c-1,0-1.6-0.1-1.6-0.7c0-0.6,0.2-0.6,1.6-0.6c0.4,0,2.6,0.2,3.1,0.2
		c1.2,0,7-0.2,8.3-0.2c7.7,0,8.4,5.3,8.4,6.8c0,5.1-4.5,6.1-6,6.4c0.6,0.3,1.1,0.6,2.1,2.4l4.2,7.5c0.9,1.5,1.5,2.6,2.7,2.8
		c1.4,0.2,1.8,0.2,1.8,0.8c0,0.5-0.4,0.5-0.7,0.5c-0.6,0-3.4-0.2-4.1-0.2c-0.3,0-2,0.2-2.4,0.2c-0.8,0-1-0.4-1.4-1.3l-5.3-9.9
		c-1-1.9-1.2-2-3.1-2c-0.7,0-0.8,0.3-0.8,1v7.8c0,1.8,0,3,2.2,3.1c1,0,1.6,0.1,1.6,0.7c0,0.6-0.6,0.6-0.9,0.6c-0.8,0-5-0.2-5.2-0.2
		c-0.7,0-4.3,0.2-5.1,0.2c-0.3,0-0.9,0-0.9-0.6s0.7-0.7,1.6-0.7c2.1-0.2,2.1-1.3,2.1-3.1V162H142.6z M147.2,168.9
		c0,1.5,0,1.6,2.2,1.6c1.6,0,5.9,0,5.9-5.4c0-1.6-0.6-6.2-6-6.2c-2,0-2,1-2,2.7L147.2,168.9z"/>
	<path class="st0" d="M176.5,174.8c-1.3,0-1.3,0-1.7,1.1l-1.5,4.7c0,0.1-0.4,1.3-0.4,1.8c0,1.1,1.1,1.2,2.1,1.2
		c1.1,0,1.7,0.2,1.7,0.7c0,0.6-0.5,0.6-1.5,0.6c-0.4,0-3-0.2-4.3-0.2c-0.5,0-3,0.2-3.6,0.2c-0.3,0-0.8,0-0.8-0.7
		c0-0.6,0.6-0.7,1.3-0.7c1.4-0.1,1.8-0.2,2.7-1.7c1.4-2.7,5.2-12.9,8.1-20.4c1.6-4.2,1.6-4.3,2-4.3c0.5,0,0.6,0.3,1.3,2.1
		c0.4,1.2,0.9,2.4,1.3,3.3l6.8,16.6c1.4,3.4,1.8,4.3,3.6,4.6c0.7,0.1,1.2,0.2,1.2,0.7c0,0.6-0.7,0.6-1,0.6c-0.7,0-4.4-0.2-5.1-0.2
		c-2.7,0-4.9,0.2-5.1,0.2c-0.4,0-1,0-1-0.6s0.7-0.7,1.6-0.8c1.1-0.1,1.5-0.3,1.5-1c0-0.4-0.2-1.1-0.3-1.3l-1.9-5.2
		c-0.5-1.3-0.6-1.3-1.8-1.3L176.5,174.8L176.5,174.8z M181.1,173.2c1,0,1-0.2,1-0.3c0-0.2-0.1-0.6-0.3-0.8l-3.1-7.5L176,172
		c0,0.1-0.2,0.5-0.2,0.8c0,0.4,0.3,0.4,1,0.4L181.1,173.2L181.1,173.2z"/>
	<path class="st0" d="M204.3,180.5c0,1.8,0,3,2.2,3.1c1,0,1.6,0.1,1.6,0.7c0,0.6-0.6,0.6-0.9,0.6c-0.9,0-2.4-0.2-5.2-0.2
		c-2.5,0-4.7,0.2-5.1,0.2c-0.4,0-0.9,0-0.9-0.7c0-0.6,0.7-0.7,1.6-0.7c2.2-0.2,2.2-1.3,2.2-3.1V162c0-1.8,0-3-2.2-3.1
		c-1,0-1.6-0.1-1.6-0.7c0-0.6,0.6-0.6,0.9-0.6c0.9,0,2.5,0.2,5.1,0.2c3.1,0,4.5-0.2,5.2-0.2c0.3,0,0.9,0,0.9,0.7
		c0,0.6-0.7,0.7-1.6,0.7c-2.2,0.2-2.2,1.3-2.2,3V180.5z"/>
	<path class="st0" d="M217.8,185.2c-3.4,0-6.1-1.2-6.9-1.7c-0.5-0.3-0.5-1-0.5-2c0-0.2,0-2.4,0.1-3.9c0-0.2,0-0.8,0.6-0.8
		c0.4,0,0.5,0.3,0.6,0.7c0.8,3.9,3.8,6.6,6.9,6.6c1.8,0,5.2-1.3,5.2-4.8c0-3.4-3-5.1-6.1-6.5c-3.5-1.6-7-3.3-7-7.9
		c0-4,3-7.5,8.6-7.5c2.5,0,5.1,0.7,5.7,1c0.5,0.3,0.5,0.7,0.5,4.5c0,1,0,1.3-0.6,1.3c-0.4,0-0.6-0.3-1-1.6c-0.5-1.7-1.3-4.2-4.9-4.2
		c-3.6,0-4.7,2.5-4.7,4.2c0,3.1,2.5,4.2,6,5.6c2.4,1,7,3.2,7,8.1C227.2,181.1,223.6,185.2,217.8,185.2z"/>
	<path class="st0" d="M233.3,162.1c0-1.8,0-3-2.2-3.1c-1,0-1.6-0.1-1.6-0.7c0-0.6,0.6-0.6,0.9-0.6c0.1,0,0.1,0,1.1,0.1
		c1,0,2.8,0.1,6.5,0.1h2.1c4.5,0,6.7,0,7.9-0.1c1.1,0,1.2-0.1,1.3-0.1c0.5,0,0.5,0.3,0.5,1.4v4c0,0.2,0,0.7-0.4,0.7
		c-0.5,0-0.6-0.2-1.4-1.8c-0.5-1.1-1.6-2.8-7.8-2.8c-2.2,0-2.3,0.3-2.3,2.5v6.3c0,1.4,0,1.7,2.5,1.7c4.8,0,5.2-1,6-3.3
		c0.2-0.6,0.4-0.7,0.7-0.7s0.5,0.1,0.5,0.6c0,0.6-0.3,5.1-0.3,6c0,0.3,0.1,1.8,0.1,2.2c0,0.3,0,0.9-0.5,0.9c-0.3,0-0.6-0.2-0.8-1
		c-0.9-3.3-2.1-3.4-5.7-3.4c-2.1,0-2.4,0-2.4,1.3v7.5c0,3.1,0.9,3.6,4.6,3.6c1.9,0,4.6,0,6.5-3.7c0.8-1.5,0.9-1.7,1.3-1.7
		c0.4,0,0.5,0.4,0.5,0.7c0,0.6-0.5,3.4-0.6,5c0,0.8-0.5,1.3-1.7,1.3c-2.2,0-5.3,0-7.8-0.1c-2.5,0-4.5-0.1-4.8-0.1h-0.5
		c-1.8,0-2.9,0-3.6,0.1c-0.7,0-1,0.1-1.4,0.1c-0.3,0-0.9,0-0.9-0.7c0-0.6,0.7-0.7,1.6-0.7c2.2-0.1,2.2-1.3,2.2-3.1L233.3,162.1z"/>
	<path class="st1" d="M79.1,43.7h28.3v39.5l-7.6-7.6v8.9c0,0-7.6-6.6-15.5-12.5C76.5,66.1,79.8,54.3,79.1,43.7z"/>
	<path class="st2" d="M112.7,89.2h40.9v32.3h-28.3l5.3-4.6c0,0-9.9,2.6-13.2-8.6C114.1,97.1,120.6,96.4,112.7,89.2z"/>
	<path class="st2" d="M76.5,120.8c0,0,14.5-17.1,8.6-29C79.1,80,76.5,76,76.5,76s-7.9-11.9-0.7-29.7C83.1,28.5,87,20.6,79.1,8.1
		c0,0-1.3,17.1-11.2,31.6C58,54.3,53.4,71.4,62,84.6s6.1,36.2,0.9,41.5c0,0-4.4,5.2,2.3,11.5c6.7,6.3,8.8,8.8,8.8,8.8
		s-7.7-10.7-3.6-18C74.3,121.1,76.5,120.8,76.5,120.8z"/>
	<path class="st1" d="M97.6,107v50.1c0,0-13.8-3.3-19.8,2.6c0,0-3.3-23.7,5.9-34.3C93,114.9,97.6,107,97.6,107z"/>
	<path class="st2" d="M101.4,102.2c0,0,5.4-0.5,6.9,6.9s3,12.4,5.9,12.9h-5.9c0,0,0,45.6,0,47.8c0,9.9-6.9,26.8-21.8,27.8
		c-14.8,1-9.4,1-9.4,1v-12.9c0,0,22.4-4,23.8-16.8C102.5,156,101.4,102.2,101.4,102.2z"/>
	<path class="st1" d="M76.5,76c0,0,2.6,4,8.6,15.8c5.9,11.9-8.6,29-8.6,29s-5.9,0.7-15.2,0c-9.2-0.7-13.2-8.6-15.8-15.8
		S31,89.2,31,89.2h44.8L76.5,76z"/>
	<g>
		<path class="st0" d="M124.3,190.7c0,0.1,0,0.2-0.2,0.2c-0.1,0-0.2,0-0.3-0.2c-0.5-0.7-1-1.4-2.3-1.4c-2.3,0-3.3,2.2-3.3,4
			c0,1.9,1.1,4.2,3.2,4.2c1.3,0,1.9-0.8,2.5-1.8c0-0.1,0.1-0.3,0.3-0.3c0.2,0,0.2,0.1,0.2,0.2l-0.1,1.2c0,0.2,0,0.3-0.3,0.5
			c-0.2,0.1-1.2,0.6-2.5,0.6c-3.5,0-5-2.7-5-4.4c0-1.9,1.7-4.4,5.3-4.4c0.6,0,0.9,0,1.8,0.2c0.6,0.1,0.7,0.2,0.7,0.6L124.3,190.7z"
			/>
		<path class="st0" d="M129.7,197.8c-2.4,0-4.7-1.8-4.7-4.4c0-2.5,2.1-4.4,4.8-4.4c2.6,0,4.7,1.9,4.7,4.3
			C134.4,195.9,132.1,197.8,129.7,197.8z M129.6,189.3c-1.9,0-2.9,1.8-2.9,3.8c0,2.2,1.3,4.4,3.2,4.4c1.9,0,2.9-2.1,2.9-4.1
			C132.8,191.6,131.8,189.3,129.6,189.3z"/>
		<path class="st0" d="M140.1,197c-0.1,0.3-0.2,0.5-0.3,0.5s-0.2-0.1-0.3-0.3l-2.7-6.7l0,0c-0.1,1.5-0.2,3.1-0.2,4.5
			c0,2.2,0.1,2.2,0.8,2.3c0.3,0,0.5,0,0.5,0.2s-0.2,0.2-0.4,0.2s-0.7-0.1-1.2-0.1s-1,0.1-1.2,0.1c-0.1,0-0.2,0-0.2-0.2
			s0.1-0.2,0.5-0.3c0.5-0.1,0.7-0.2,0.7-1.1c0-0.1,0.3-4.2,0.3-6c0-0.7,0-0.7-0.7-0.7c-0.5,0-0.6-0.1-0.6-0.3c0-0.1,0.1-0.2,0.3-0.2
			s0.9,0.1,1.3,0.1c0.5,0,0.8-0.1,1-0.1c0.1,0,0.2,0,0.4,0.3l2.3,5.8l2.2-5.6c0.2-0.5,0.3-0.5,0.6-0.5s0.8,0.1,1.2,0.1
			c0.3,0,0.7-0.1,0.8-0.1c0.2,0,0.3,0,0.3,0.2s-0.1,0.2-0.5,0.2c-0.7,0-0.7,0.2-0.7,1l0.2,5.9c0,0.9,0,1.1,0.7,1.1
			c0.3,0,0.4,0.1,0.4,0.2c0,0.2-0.2,0.2-0.4,0.2s-0.9-0.1-1.5-0.1c-0.7,0-1.4,0.1-1.7,0.1c-0.1,0-0.2,0-0.2-0.2s0.1-0.2,0.5-0.2
			c0.6-0.1,0.7-0.4,0.6-1.1l-0.1-6l0,0L140.1,197z"/>
		<path class="st0" d="M151,197c-0.1,0.3-0.2,0.5-0.3,0.5s-0.2-0.1-0.3-0.3l-2.7-6.7l0,0c-0.1,1.5-0.2,3.1-0.2,4.5
			c0,2.2,0.1,2.2,0.8,2.3c0.3,0,0.5,0,0.5,0.2s-0.2,0.2-0.4,0.2s-0.7-0.1-1.2-0.1s-1,0.1-1.2,0.1c-0.1,0-0.2,0-0.2-0.2
			s0.1-0.2,0.5-0.2c0.5-0.1,0.7-0.2,0.7-1.1c0-0.1,0.3-4.2,0.3-6c0-0.7,0-0.7-0.7-0.7c-0.5,0-0.6-0.1-0.6-0.2c0-0.1,0.1-0.2,0.3-0.2
			c0.1,0,0.9,0.1,1.3,0.1c0.5,0,0.8-0.1,1-0.1c0.1,0,0.2,0,0.4,0.3l2.3,5.8l2.2-5.6c0.2-0.5,0.3-0.5,0.6-0.5s0.8,0.1,1.1,0.1
			s0.7-0.1,0.8-0.1c0.2,0,0.3,0,0.3,0.2s-0.1,0.2-0.5,0.2c-0.6,0-0.7,0.2-0.6,1l0.2,5.9c0,0.9,0,1.1,0.7,1.1c0.3,0,0.4,0.1,0.4,0.2
			c0,0.2-0.2,0.2-0.4,0.2s-0.9-0.1-1.5-0.1c-0.7,0-1.4,0.1-1.7,0.1c-0.1,0-0.2,0-0.2-0.2s0.1-0.2,0.5-0.2c0.6-0.1,0.7-0.4,0.6-1.1
			l-0.1-6l0,0L151,197z"/>
		<path class="st0" d="M163.8,190.8c0-1.2-0.1-1.3-0.9-1.4c-0.3,0-0.5,0-0.5-0.2s0.2-0.2,0.3-0.2c0.2,0,0.5,0.1,1.2,0.1
			c0.5,0,1.1-0.1,1.3-0.1s0.2,0.1,0.2,0.2c0,0.2-0.3,0.2-0.4,0.2c-0.6,0-0.8,0.1-0.8,1.3v4.3c0,0.8,0,2.8-3.1,2.8
			c-1.9,0-3.6-0.5-3.6-2.8v-4.5c0-0.6,0-1-0.7-1c-0.3,0-0.5,0-0.5-0.2s0.2-0.2,0.3-0.2s0.7,0.1,1.6,0.1c1,0,1.6-0.1,1.7-0.1
			c0.1,0,0.3,0,0.3,0.2s-0.2,0.2-0.5,0.2c-0.7,0.1-0.7,0.4-0.7,1v4.3c0,1,0,2.7,2.4,2.7c2.2,0,2.4-1.5,2.4-2.3V190.8z"/>
		<path class="st0" d="M173.4,195.4l-0.1-4.3c0-1.7-0.2-1.7-0.7-1.7c-0.4,0-0.6,0-0.6-0.2s0.3-0.2,0.3-0.2c0.2,0,0.9,0.1,1.1,0.1
			c0.2,0,1.2-0.1,1.5-0.1c0.1,0,0.2,0,0.2,0.2s-0.1,0.2-0.5,0.2c-0.5,0.1-0.7,0.1-0.7,0.8v7.2c0,0.1,0,0.4-0.2,0.4
			c-0.1,0-0.2,0-0.4-0.3l-5.9-7.3l0,0l0.1,4.8c0,2,0.2,2.1,0.8,2.2c0.6,0,0.6,0,0.6,0.2s-0.2,0.2-0.3,0.2c-0.2,0-0.7-0.1-1.1-0.1
			c-0.7,0-1.3,0.1-1.6,0.1c0,0-0.2,0-0.2-0.2s0.1-0.2,0.6-0.2c0.6-0.1,0.7-0.1,0.7-2v-4.6c0-1.1-0.1-1.2-0.7-1.2
			c-0.3,0-0.5,0-0.5-0.2s0.2-0.2,0.4-0.2s0.8,0.1,1.2,0.1s0.7-0.1,0.9-0.1s0.4,0.3,0.5,0.4L173.4,195.4L173.4,195.4z"/>
		<path class="st0" d="M177.8,196.2c0,0.6,0,1,0.7,1c0.3,0,0.5,0,0.5,0.2s-0.2,0.2-0.3,0.2c-0.3,0-0.7-0.1-1.7-0.1
			c-0.8,0-1.5,0.1-1.6,0.1s-0.3,0-0.3-0.2s0.2-0.2,0.5-0.2c0.7-0.1,0.7-0.4,0.7-1v-5.8c0-0.6,0-0.9-0.7-1c-0.3,0-0.5,0-0.5-0.2
			s0.2-0.2,0.3-0.2c0.3,0,0.8,0.1,1.6,0.1c1,0,1.4-0.1,1.6-0.1c0.1,0,0.3,0,0.3,0.2s-0.2,0.2-0.5,0.2c-0.7,0.1-0.7,0.4-0.7,1
			L177.8,196.2L177.8,196.2z"/>
		<path class="st0" d="M183.8,189.9c0-0.5,0.1-0.5,0.9-0.5c0.9,0,1.6,0,1.8,1.3c0.1,0.3,0.2,0.3,0.2,0.3c0.2,0,0.2-0.2,0.2-0.4
			l0.1-1.7c0-0.3,0-0.6-0.2-0.6c-0.1,0-0.2,0.1-0.2,0.2c-0.1,0.3-0.2,0.4-1.6,0.4h-4.4c-0.3,0-0.6,0-0.6-0.4c0-0.1-0.1-0.2-0.2-0.2
			c-0.1,0-0.2,0.1-0.2,0.3l-0.6,2c0,0.1,0,0.2,0,0.2c0,0.1,0.1,0.2,0.2,0.2c0.1,0,0.2-0.1,0.3-0.3c0.7-1.3,1.6-1.3,2.5-1.3
			c0.3,0,0.4,0,0.4,0.4v6.4c0,0.5,0,0.9-0.7,1c-0.3,0-0.5,0-0.5,0.2s0.2,0.2,0.3,0.2c0.3,0,1.4-0.1,1.6-0.1c0.5,0,1.2,0.1,1.6,0.1
			c0.1,0,0.3,0,0.3-0.2s-0.2-0.2-0.5-0.2c-0.7,0-0.7-0.4-0.7-1L183.8,189.9L183.8,189.9z"/>
		<path class="st0" d="M188.2,190.4c-0.6-0.9-0.9-1-1.1-1c-0.5-0.1-0.6-0.1-0.6-0.2c0-0.2,0.2-0.2,0.5-0.2s0.5,0.1,1.6,0.1
			c1.3,0,1.6-0.1,1.7-0.1c0.2,0,0.4,0,0.4,0.2s-0.2,0.2-0.6,0.2c-0.4,0-0.5,0.1-0.5,0.2c0,0.1,0,0.2,0.3,0.5l2,3l1.6-2.4
			c0.1-0.2,0.4-0.7,0.4-1s-0.3-0.3-0.8-0.4c-0.1,0-0.3,0-0.3-0.2s0.3-0.2,0.4-0.2c0.3,0,0.5,0.1,1.3,0.1c0.5,0,1.1-0.1,1.2-0.1
			c0.1,0,0.2,0.1,0.2,0.2c0,0.1-0.2,0.2-0.3,0.2c-0.6,0-0.9,0.3-1.7,1.5l-1.7,2.6c-0.1,0.1-0.1,0.1-0.1,0.3v2.5c0,0.6,0,0.9,0.7,1
			c0.3,0,0.5,0,0.5,0.3c0,0.2-0.2,0.2-0.3,0.2c-0.4,0-1-0.1-1.5-0.1c-0.9,0-1.7,0.1-1.8,0.1s-0.3,0-0.3-0.2s0.2-0.2,0.5-0.2
			c0.7-0.1,0.7-0.4,0.7-1v-2.1c0-0.1,0-0.2-0.1-0.3L188.2,190.4z"/>
		<path class="st0" d="M207.2,190.7c0,0.1,0,0.2-0.2,0.2c-0.1,0-0.2,0-0.3-0.2c-0.5-0.7-1-1.4-2.3-1.4c-2.3,0-3.3,2.2-3.3,4
			c0,1.9,1.1,4.2,3.2,4.1c1.3,0,1.9-0.8,2.5-1.8c0-0.1,0.1-0.3,0.3-0.3s0.2,0.1,0.2,0.2l-0.1,1.2c0,0.2,0,0.3-0.3,0.5
			c-0.2,0.1-1.2,0.6-2.5,0.6c-3.5,0-5-2.7-5-4.4c0-1.9,1.7-4.4,5.3-4.4c0.6,0,0.9,0,1.8,0.2c0.6,0.1,0.7,0.2,0.7,0.6L207.2,190.7z"
			/>
		<path class="st0" d="M210.3,192.3c0,0.4,0,0.4,0.4,0.4h3c0.5,0,0.5,0,0.5-0.4v-1.9c0-0.6,0-0.9-0.7-1c-0.3,0-0.5,0-0.5-0.2
			s0.2-0.2,0.3-0.2c0.4,0,0.9,0.1,1.6,0.1c0.7,0,1.1-0.1,1.6-0.1c0.1,0,0.3,0,0.3,0.2s-0.2,0.2-0.5,0.2c-0.7,0-0.7,0.4-0.7,1v5.9
			c0,0.6,0,1,0.7,1c0.3,0,0.5,0,0.5,0.2s-0.2,0.2-0.3,0.2c-0.2,0-0.7-0.1-1.6-0.1c-0.8,0-1.5,0.1-1.6,0.1s-0.3,0-0.3-0.2
			s0.2-0.2,0.5-0.2c0.7-0.1,0.7-0.4,0.7-1v-2.7c0-0.3-0.1-0.3-0.5-0.3h-2.9c-0.5,0-0.5,0-0.5,0.3v2.7c0,0.6,0,1,0.7,1
			c0.3,0,0.5,0,0.5,0.2s-0.2,0.2-0.3,0.2c-0.2,0-0.6-0.1-1.6-0.1c-0.8,0-1.4,0.1-1.6,0.1c-0.1,0-0.3,0-0.3-0.2s0.2-0.2,0.5-0.2
			c0.7-0.1,0.7-0.4,0.7-1v-5.9c0-0.6,0-0.9-0.7-1c-0.3,0-0.5,0-0.5-0.2s0.2-0.2,0.3-0.2c0.4,0,0.9,0.1,1.6,0.1
			c0.7,0,1.2-0.1,1.6-0.1c0.1,0,0.3,0,0.3,0.2s-0.2,0.2-0.5,0.2c-0.7,0-0.7,0.4-0.7,1V192.3z"/>
		<path class="st0" d="M224.3,190.7c0-1.2-0.1-1.3-0.9-1.4c-0.3,0-0.5,0-0.5-0.2s0.2-0.2,0.3-0.2c0.2,0,0.5,0.1,1.2,0.1
			c0.5,0,1.1-0.1,1.3-0.1s0.2,0.1,0.2,0.2c0,0.2-0.2,0.2-0.4,0.2c-0.6,0-0.8,0.1-0.8,1.3v4.3c0,0.8,0,2.8-3.1,2.8
			c-1.9,0-3.6-0.5-3.6-2.8v-4.5c0-0.6,0-1-0.7-1c-0.3,0-0.5,0-0.5-0.2s0.2-0.2,0.3-0.2s0.7,0.1,1.6,0.1c1,0,1.6-0.1,1.7-0.1
			c0.1,0,0.3,0,0.3,0.2s-0.2,0.2-0.5,0.2c-0.7,0.1-0.7,0.4-0.7,1v4.3c0,1,0,2.7,2.4,2.7c2.2,0,2.4-1.5,2.4-2.3V190.7z"/>
		<path class="st0" d="M227.3,190.4c0-0.6,0-0.9-0.7-1c-0.3,0-0.5,0-0.5-0.2s0.1-0.2,0.5-0.2c0.1,0,0.8,0.1,1,0.1
			c0.4,0,2.2-0.1,2.6-0.1c2.5,0,2.7,1.7,2.7,2.2c0,1.6-1.4,2-1.9,2c0.2,0.1,0.3,0.2,0.7,0.8l1.3,2.4c0.3,0.5,0.5,0.8,0.9,0.9
			c0.5,0.1,0.6,0.1,0.6,0.2c0,0.2-0.1,0.2-0.2,0.2c-0.2,0-1.1-0.1-1.3-0.1c-0.1,0-0.6,0.1-0.7,0.1c-0.3,0-0.3-0.1-0.5-0.4l-1.7-3.2
			c-0.3-0.6-0.4-0.7-1-0.7c-0.2,0-0.3,0.1-0.3,0.3v2.5c0,0.6,0,1,0.7,1c0.3,0,0.5,0,0.5,0.2s-0.2,0.2-0.3,0.2
			c-0.3,0-1.6-0.1-1.7-0.1c-0.2,0-1.4,0.1-1.6,0.1c-0.1,0-0.3,0-0.3-0.2s0.2-0.2,0.5-0.2c0.7-0.1,0.7-0.4,0.7-1V190.4z M228.8,192.6
			c0,0.5,0,0.5,0.7,0.5c0.5,0,1.9,0,1.9-1.7c0-0.5-0.2-2-1.9-2c-0.6,0-0.7,0.3-0.7,0.9V192.6z"/>
		<path class="st0" d="M242.3,190.7c0,0.1,0,0.2-0.2,0.2c-0.1,0-0.2,0-0.3-0.2c-0.5-0.7-1-1.4-2.3-1.4c-2.3,0-3.3,2.2-3.3,4
			c0,1.9,1.1,4.2,3.2,4.2c1.3,0,1.9-0.8,2.5-1.8c0-0.1,0.1-0.3,0.3-0.3s0.2,0.1,0.2,0.2l-0.1,1.2c0,0.2,0,0.3-0.3,0.5
			c-0.2,0.1-1.1,0.6-2.5,0.6c-3.5,0-5-2.7-5-4.4c0-1.9,1.7-4.4,5.3-4.4c0.6,0,0.9,0,1.8,0.2c0.6,0.1,0.7,0.2,0.7,0.6L242.3,190.7z"
			/>
		<path class="st0" d="M245.4,192.3c0,0.4,0,0.4,0.4,0.4h3c0.5,0,0.5,0,0.5-0.4v-1.9c0-0.6,0-0.9-0.7-1c-0.3,0-0.5,0-0.5-0.2
			s0.2-0.2,0.3-0.2c0.4,0,0.9,0.1,1.6,0.1c0.7,0,1.1-0.1,1.6-0.1c0.1,0,0.3,0,0.3,0.2s-0.2,0.2-0.5,0.2c-0.7,0-0.7,0.4-0.7,1v5.9
			c0,0.6,0,1,0.7,1c0.3,0,0.5,0,0.5,0.2s-0.2,0.2-0.3,0.2c-0.2,0-0.7-0.1-1.6-0.1c-0.8,0-1.5,0.1-1.6,0.1s-0.3,0-0.3-0.2
			s0.2-0.2,0.5-0.2c0.7-0.1,0.7-0.4,0.7-1v-2.7c0-0.3-0.1-0.3-0.5-0.3h-2.9c-0.5,0-0.5,0-0.5,0.3v2.7c0,0.6,0,1,0.7,1
			c0.3,0,0.5,0,0.5,0.2s-0.2,0.2-0.3,0.2c-0.2,0-0.6-0.1-1.6-0.1c-0.8,0-1.4,0.1-1.6,0.1c-0.1,0-0.3,0-0.3-0.2s0.2-0.2,0.5-0.2
			c0.7-0.1,0.7-0.4,0.7-1v-5.9c0-0.6,0-0.9-0.7-1c-0.3,0-0.5,0-0.5-0.2s0.2-0.2,0.3-0.2c0.4,0,0.9,0.1,1.6,0.1
			c0.7,0,1.2-0.1,1.6-0.1c0.1,0,0.3,0,0.3,0.2s-0.2,0.2-0.5,0.2c-0.7,0-0.7,0.4-0.7,1V192.3z"/>
	</g>
</g>
</svg>
