<?xml version="1.0" encoding="UTF-8"?>
<!DOCTYPE svg PUBLIC "-//W3C//DTD SVG 1.1//EN" "http://www.w3.org/Graphics/SVG/1.1/DTD/svg11.dtd">
<!-- Creator: CorelDRAW X7 -->
<svg xmlns="http://www.w3.org/2000/svg" xml:space="preserve" width="1000px" height="1000px" version="1.1" style="shape-rendering:geometricPrecision; text-rendering:geometricPrecision; image-rendering:optimizeQuality; fill-rule:evenodd; clip-rule:evenodd"
viewBox="0 0 1000 1000"
 xmlns:xlink="http://www.w3.org/1999/xlink">
 <defs>
  <style type="text/css">
   <![CDATA[
    .fil0 {fill:none}
    .fil2 {fill:#4DA5DC}
    .fil1 {fill:#4DA5DC;fill-opacity:0.101961}
   ]]>
  </style>
 </defs>
 <g id="Layer_x0020_1">
  <metadata id="CorelCorpID_0Corel-Layer"/>
  <rect class="fil0" width="1000" height="1000"/>
  <g id="_2039281218560">
   <path class="fil1" d="M564 5c70,0 128,48 144,113 91,1 165,75 165,166 0,92 -74,166 -166,166l0 0 -256 0 0 0c-92,0 -166,-74 -166,-166 0,-80 57,-148 134,-163 14,-66 73,-116 145,-116z"/>
   <path class="fil2" d="M471 31c70,0 128,48 144,114 91,0 165,74 165,166 0,69 -43,129 -103,154l-89 289 74 75c3,2 5,6 5,10 0,7 -6,13 -13,13l0 0 0 0 -29 0 0 110 -1 0c0,18 -15,33 -33,33l0 0 -89 0 -90 0 0 0c-18,0 -33,-15 -33,-33l0 0 0 -110 -30 0c-7,0 -13,-6 -13,-13 0,-4 2,-7 4,-10l0 0 70 -69 -90 -288c-73,-17 -128,-83 -128,-161 0,-81 57,-148 134,-163 14,-67 73,-117 145,-117zm194 438c-16,5 -33,8 -51,8l0 0 -108 0 0 203c5,1 9,3 13,7l0 -1 61 61 85 -278zm-168 8l-139 0 0 0c-9,0 -19,-1 -27,-3l87 278 65 -66 2 1c3,-4 7,-6 12,-7l0 -203zm-34 505l78 0 0 -57c0,-21 -18,-39 -39,-39 -22,0 -39,18 -39,39l0 0 0 57z"/>
  </g>
 </g>
</svg>
